# xmcd
#
# Track frame offsets:
#	150
#	5316
#	30099
#	54633
#	72152
#	95325
#	113865
#	130674
#	146080
#	172017
#	185844
#	198257
#	221013
#	245219
#	278859
#	293141
#
# Disc length: 4327 seconds
#
# Revision: 1
# Processed by: cddbd v1.5.1PL0 Copyright (c) Steve Scherf et al.
# Submitted via: CDex 1.50Beta5
#
DISCID=f010e510
DTITLE=Ara Yoshiki - Angel Knight Sword 6 --Fortunate, since you were.--
DYEAR=1900
DGENRE=Soundtrack
TTITLE0=天使の物語
TTITLE1=悪夢と現実の距離
TTITLE2=失意の大地
TTITLE3="私"の意味
TTITLE4=氷に託した愛
TTITLE5=飢餓の島(飢餓サンデリール)
TTITLE6=生の訓練(老神ソドム)
TTITLE7=命の硬度(病神アブクトラ)
TTITLE8=砕けたココロ
TTITLE9=闇の館
TTITLE10=幸せでした
TTITLE11=聖なる矛盾
TTITLE12=魔天使の詩(死神リトリアル)
TTITLE13=死の神に永久の眠りを(サラ)
TTITLE14=星を継ぐ者たち
TTITLE15=天使になった少女たち(メインテーマオーケストラバージョン)
EXTD=
EXTT0=
EXTT1=
EXTT2=
EXTT3=
EXTT4=
EXTT5=
EXTT6=
EXTT7=
EXTT8=
EXTT9=
EXTT10=
EXTT11=
EXTT12=
EXTT13=
EXTT14=
EXTT15=
PLAYORDER=
